<mxfile host="app.diagrams.net" modified="2022-08-18T00:41:24.871Z" agent="5.0 (Macintosh; Intel Mac OS X 10_15_7) AppleWebKit/605.1.15 (KHTML, like Gecko) Version/15.5 Safari/605.1.15" etag="cgdl3kk4JFT8PddFnXB4" version="20.2.3" type="github">
  <diagram id="-Ug2wohR3drrXLd8aFfp" name="Page-1">
    <mxGraphModel dx="1198" dy="1985" grid="1" gridSize="10" guides="1" tooltips="1" connect="1" arrows="1" fold="1" page="1" pageScale="1" pageWidth="850" pageHeight="1100" math="0" shadow="0">
      <root>
        <mxCell id="0" />
        <mxCell id="1" parent="0" />
        <mxCell id="j7DvqM1_xKKn_GZB0Q8j-68" style="edgeStyle=orthogonalEdgeStyle;rounded=0;orthogonalLoop=1;jettySize=auto;html=1;entryX=0.145;entryY=0;entryDx=0;entryDy=4.35;entryPerimeter=0;startArrow=none;startFill=0;endArrow=classic;endFill=1;" edge="1" parent="1" target="j7DvqM1_xKKn_GZB0Q8j-67">
          <mxGeometry relative="1" as="geometry">
            <mxPoint x="562.47" y="640" as="sourcePoint" />
            <Array as="points">
              <mxPoint x="562.47" y="670" />
              <mxPoint x="807.47" y="670" />
            </Array>
          </mxGeometry>
        </mxCell>
        <mxCell id="j7DvqM1_xKKn_GZB0Q8j-72" value="Updates documents" style="edgeLabel;html=1;align=center;verticalAlign=middle;resizable=0;points=[];" vertex="1" connectable="0" parent="j7DvqM1_xKKn_GZB0Q8j-68">
          <mxGeometry x="0.0113" y="1" relative="1" as="geometry">
            <mxPoint as="offset" />
          </mxGeometry>
        </mxCell>
        <mxCell id="j7DvqM1_xKKn_GZB0Q8j-69" style="edgeStyle=orthogonalEdgeStyle;rounded=0;orthogonalLoop=1;jettySize=auto;html=1;exitX=0.855;exitY=0;exitDx=0;exitDy=4.35;exitPerimeter=0;startArrow=none;startFill=0;endArrow=classic;endFill=1;" edge="1" parent="1" source="j7DvqM1_xKKn_GZB0Q8j-67">
          <mxGeometry relative="1" as="geometry">
            <mxPoint x="1117.47" y="640" as="targetPoint" />
            <Array as="points">
              <mxPoint x="878.47" y="670" />
              <mxPoint x="1117.47" y="670" />
            </Array>
          </mxGeometry>
        </mxCell>
        <mxCell id="j7DvqM1_xKKn_GZB0Q8j-73" value="Reads documents content" style="edgeLabel;html=1;align=center;verticalAlign=middle;resizable=0;points=[];" vertex="1" connectable="0" parent="j7DvqM1_xKKn_GZB0Q8j-69">
          <mxGeometry x="0.0697" y="1" relative="1" as="geometry">
            <mxPoint as="offset" />
          </mxGeometry>
        </mxCell>
        <mxCell id="j7DvqM1_xKKn_GZB0Q8j-67" value="File system" style="shape=cylinder3;whiteSpace=wrap;html=1;boundedLbl=1;backgroundOutline=1;size=15;fillColor=#bac8d3;strokeColor=#23445d;gradientColor=none;" vertex="1" parent="1">
          <mxGeometry x="792.47" y="700" width="100" height="120" as="geometry" />
        </mxCell>
        <mxCell id="j7DvqM1_xKKn_GZB0Q8j-76" style="edgeStyle=orthogonalEdgeStyle;rounded=0;orthogonalLoop=1;jettySize=auto;html=1;exitX=0.75;exitY=0;exitDx=0;exitDy=0;entryX=0.75;entryY=1;entryDx=0;entryDy=0;startArrow=none;startFill=0;endArrow=classic;endFill=1;" edge="1" source="j7DvqM1_xKKn_GZB0Q8j-78" target="j7DvqM1_xKKn_GZB0Q8j-84" parent="1">
          <mxGeometry relative="1" as="geometry" />
        </mxCell>
        <mxCell id="j7DvqM1_xKKn_GZB0Q8j-77" value="Updates views data" style="edgeLabel;html=1;align=center;verticalAlign=middle;resizable=0;points=[];" vertex="1" connectable="0" parent="j7DvqM1_xKKn_GZB0Q8j-76">
          <mxGeometry x="0.2471" relative="1" as="geometry">
            <mxPoint y="7" as="offset" />
          </mxGeometry>
        </mxCell>
        <mxCell id="j7DvqM1_xKKn_GZB0Q8j-78" value="Document Manager" style="swimlane;fillColor=#fad9d5;strokeColor=#ae4132;rounded=1;" vertex="1" parent="1">
          <mxGeometry x="310" y="470" width="1060" height="170" as="geometry" />
        </mxCell>
        <mxCell id="j7DvqM1_xKKn_GZB0Q8j-79" value="Montreal.geojson" style="whiteSpace=wrap;html=1;shape=mxgraph.basic.document;fillColor=#d0cee2;strokeColor=#56517e;shadow=1;" vertex="1" parent="j7DvqM1_xKKn_GZB0Q8j-78">
          <mxGeometry x="250" y="45" width="100" height="100" as="geometry" />
        </mxCell>
        <mxCell id="j7DvqM1_xKKn_GZB0Q8j-80" value="London.geojson" style="whiteSpace=wrap;html=1;shape=mxgraph.basic.document;fillColor=#d0cee2;strokeColor=#56517e;shadow=1;" vertex="1" parent="j7DvqM1_xKKn_GZB0Q8j-78">
          <mxGeometry x="400" y="45" width="100" height="100" as="geometry" />
        </mxCell>
        <mxCell id="j7DvqM1_xKKn_GZB0Q8j-81" value="Cat.jpeg" style="whiteSpace=wrap;html=1;shape=mxgraph.basic.document;fillColor=#d0cee2;strokeColor=#56517e;shadow=1;" vertex="1" parent="j7DvqM1_xKKn_GZB0Q8j-78">
          <mxGeometry x="550" y="45" width="100" height="100" as="geometry" />
        </mxCell>
        <mxCell id="j7DvqM1_xKKn_GZB0Q8j-82" value="..." style="text;html=1;strokeColor=none;fillColor=none;align=center;verticalAlign=middle;whiteSpace=wrap;rounded=0;" vertex="1" parent="j7DvqM1_xKKn_GZB0Q8j-78">
          <mxGeometry x="700" y="80" width="60" height="30" as="geometry" />
        </mxCell>
        <mxCell id="j7DvqM1_xKKn_GZB0Q8j-83" value="Triggers document events" style="edgeStyle=orthogonalEdgeStyle;rounded=0;orthogonalLoop=1;jettySize=auto;html=1;exitX=0.25;exitY=1;exitDx=0;exitDy=0;entryX=0.25;entryY=0;entryDx=0;entryDy=0;startArrow=none;startFill=0;endArrow=classic;endFill=1;" edge="1" source="j7DvqM1_xKKn_GZB0Q8j-84" target="j7DvqM1_xKKn_GZB0Q8j-78" parent="1">
          <mxGeometry relative="1" as="geometry" />
        </mxCell>
        <mxCell id="j7DvqM1_xKKn_GZB0Q8j-84" value="View Manager" style="swimlane;fillColor=#fad7ac;strokeColor=#b46504;rounded=1;" vertex="1" parent="1">
          <mxGeometry x="310" y="-50" width="1060" height="460" as="geometry" />
        </mxCell>
        <mxCell id="j7DvqM1_xKKn_GZB0Q8j-85" value="View Group" style="swimlane;fillColor=#FFE599;strokeColor=#FFB570;rounded=1;shadow=0;glass=0;" vertex="1" parent="j7DvqM1_xKKn_GZB0Q8j-84">
          <mxGeometry x="20" y="37.5" width="690" height="402.5" as="geometry" />
        </mxCell>
        <mxCell id="j7DvqM1_xKKn_GZB0Q8j-86" value="Montreal.geojson" style="swimlane;fillColor=#FFD966;strokeColor=#806d33;rounded=1;" vertex="1" parent="j7DvqM1_xKKn_GZB0Q8j-85">
          <mxGeometry x="20" y="42.5" width="190" height="335" as="geometry" />
        </mxCell>
        <mxCell id="j7DvqM1_xKKn_GZB0Q8j-87" value="&amp;lt;&amp;lt;view&amp;gt;&amp;gt;&lt;br&gt;GeoJson Viewer" style="shape=folder;html=1;tabWidth=110;tabHeight=40;tabPosition=left;align=left;verticalAlign=top;spacingLeft=10;whiteSpace=wrap;fillColor=#b1ddf0;strokeColor=#10739e;" vertex="1" parent="j7DvqM1_xKKn_GZB0Q8j-86">
          <mxGeometry x="20" y="40" width="150" height="120" as="geometry" />
        </mxCell>
        <mxCell id="j7DvqM1_xKKn_GZB0Q8j-88" style="edgeStyle=orthogonalEdgeStyle;rounded=0;orthogonalLoop=1;jettySize=auto;html=1;exitX=0.625;exitY=0;exitDx=0;exitDy=0;entryX=0.627;entryY=1.025;entryDx=0;entryDy=0;entryPerimeter=0;" edge="1" parent="j7DvqM1_xKKn_GZB0Q8j-86" source="j7DvqM1_xKKn_GZB0Q8j-90" target="j7DvqM1_xKKn_GZB0Q8j-87">
          <mxGeometry relative="1" as="geometry" />
        </mxCell>
        <mxCell id="j7DvqM1_xKKn_GZB0Q8j-89" style="edgeStyle=orthogonalEdgeStyle;rounded=0;orthogonalLoop=1;jettySize=auto;html=1;exitX=0.375;exitY=0;exitDx=0;exitDy=0;endArrow=none;endFill=0;startArrow=classic;startFill=1;" edge="1" parent="j7DvqM1_xKKn_GZB0Q8j-86" source="j7DvqM1_xKKn_GZB0Q8j-90">
          <mxGeometry relative="1" as="geometry">
            <mxPoint x="76" y="160" as="targetPoint" />
          </mxGeometry>
        </mxCell>
        <mxCell id="j7DvqM1_xKKn_GZB0Q8j-90" value="GeoJson Controller" style="shape=hexagon;perimeter=hexagonPerimeter2;whiteSpace=wrap;html=1;fixedSize=1;fillColor=#b0e3e6;strokeColor=#0e8088;" vertex="1" parent="j7DvqM1_xKKn_GZB0Q8j-86">
          <mxGeometry x="20" y="200" width="150" height="120" as="geometry" />
        </mxCell>
        <mxCell id="j7DvqM1_xKKn_GZB0Q8j-91" value="Content&lt;br&gt;Configs&lt;br&gt;URI&lt;br&gt;Source" style="text;html=1;strokeColor=none;fillColor=none;align=center;verticalAlign=middle;whiteSpace=wrap;rounded=0;" vertex="1" parent="j7DvqM1_xKKn_GZB0Q8j-86">
          <mxGeometry x="30" y="85" width="130" height="65" as="geometry" />
        </mxCell>
        <mxCell id="j7DvqM1_xKKn_GZB0Q8j-92" value="London.geojson" style="swimlane;fillColor=#FFD966;strokeColor=#806d33;rounded=1;" vertex="1" parent="j7DvqM1_xKKn_GZB0Q8j-85">
          <mxGeometry x="230" y="42.5" width="190" height="335" as="geometry" />
        </mxCell>
        <mxCell id="j7DvqM1_xKKn_GZB0Q8j-93" value="&amp;lt;&amp;lt;view&amp;gt;&amp;gt;&lt;br&gt;GeoJson Viewer" style="shape=folder;html=1;tabWidth=110;tabHeight=40;tabPosition=left;align=left;verticalAlign=top;spacingLeft=10;whiteSpace=wrap;fillColor=#b1ddf0;strokeColor=#10739e;" vertex="1" parent="j7DvqM1_xKKn_GZB0Q8j-92">
          <mxGeometry x="20" y="40" width="150" height="120" as="geometry" />
        </mxCell>
        <mxCell id="j7DvqM1_xKKn_GZB0Q8j-94" style="edgeStyle=orthogonalEdgeStyle;rounded=0;orthogonalLoop=1;jettySize=auto;html=1;exitX=0.625;exitY=0;exitDx=0;exitDy=0;entryX=0.627;entryY=1.025;entryDx=0;entryDy=0;entryPerimeter=0;" edge="1" parent="j7DvqM1_xKKn_GZB0Q8j-92" source="j7DvqM1_xKKn_GZB0Q8j-96" target="j7DvqM1_xKKn_GZB0Q8j-93">
          <mxGeometry relative="1" as="geometry" />
        </mxCell>
        <mxCell id="j7DvqM1_xKKn_GZB0Q8j-95" style="edgeStyle=orthogonalEdgeStyle;rounded=0;orthogonalLoop=1;jettySize=auto;html=1;exitX=0.375;exitY=0;exitDx=0;exitDy=0;endArrow=none;endFill=0;startArrow=classic;startFill=1;" edge="1" parent="j7DvqM1_xKKn_GZB0Q8j-92" source="j7DvqM1_xKKn_GZB0Q8j-96">
          <mxGeometry relative="1" as="geometry">
            <mxPoint x="76" y="160" as="targetPoint" />
          </mxGeometry>
        </mxCell>
        <mxCell id="j7DvqM1_xKKn_GZB0Q8j-96" value="GeoJson Controller" style="shape=hexagon;perimeter=hexagonPerimeter2;whiteSpace=wrap;html=1;fixedSize=1;fillColor=#b0e3e6;strokeColor=#0e8088;" vertex="1" parent="j7DvqM1_xKKn_GZB0Q8j-92">
          <mxGeometry x="20" y="200" width="150" height="120" as="geometry" />
        </mxCell>
        <mxCell id="j7DvqM1_xKKn_GZB0Q8j-97" value="Content&lt;br&gt;Configs&lt;br&gt;URI&lt;br&gt;Source" style="text;html=1;strokeColor=none;fillColor=none;align=center;verticalAlign=middle;whiteSpace=wrap;rounded=0;" vertex="1" parent="j7DvqM1_xKKn_GZB0Q8j-92">
          <mxGeometry x="30" y="85" width="130" height="65" as="geometry" />
        </mxCell>
        <mxCell id="j7DvqM1_xKKn_GZB0Q8j-98" value="Cat.jpeg" style="swimlane;fillColor=#FFD966;strokeColor=#806d33;rounded=1;" vertex="1" parent="j7DvqM1_xKKn_GZB0Q8j-85">
          <mxGeometry x="440" y="42.5" width="190" height="335" as="geometry" />
        </mxCell>
        <mxCell id="j7DvqM1_xKKn_GZB0Q8j-99" value="&amp;lt;&amp;lt;view&amp;gt;&amp;gt;&lt;br&gt;JPEG Viewer" style="shape=folder;html=1;tabWidth=110;tabHeight=40;tabPosition=left;align=left;verticalAlign=top;spacingLeft=10;whiteSpace=wrap;fillColor=#b1ddf0;strokeColor=#10739e;" vertex="1" parent="j7DvqM1_xKKn_GZB0Q8j-98">
          <mxGeometry x="20" y="40" width="150" height="120" as="geometry" />
        </mxCell>
        <mxCell id="j7DvqM1_xKKn_GZB0Q8j-100" style="edgeStyle=orthogonalEdgeStyle;rounded=0;orthogonalLoop=1;jettySize=auto;html=1;exitX=0.625;exitY=0;exitDx=0;exitDy=0;entryX=0.627;entryY=1.025;entryDx=0;entryDy=0;entryPerimeter=0;" edge="1" parent="j7DvqM1_xKKn_GZB0Q8j-98" source="j7DvqM1_xKKn_GZB0Q8j-102" target="j7DvqM1_xKKn_GZB0Q8j-99">
          <mxGeometry relative="1" as="geometry" />
        </mxCell>
        <mxCell id="j7DvqM1_xKKn_GZB0Q8j-101" style="edgeStyle=orthogonalEdgeStyle;rounded=0;orthogonalLoop=1;jettySize=auto;html=1;exitX=0.375;exitY=0;exitDx=0;exitDy=0;endArrow=none;endFill=0;startArrow=classic;startFill=1;" edge="1" parent="j7DvqM1_xKKn_GZB0Q8j-98" source="j7DvqM1_xKKn_GZB0Q8j-102">
          <mxGeometry relative="1" as="geometry">
            <mxPoint x="76" y="160" as="targetPoint" />
          </mxGeometry>
        </mxCell>
        <mxCell id="j7DvqM1_xKKn_GZB0Q8j-102" value="JPEG Controller" style="shape=hexagon;perimeter=hexagonPerimeter2;whiteSpace=wrap;html=1;fixedSize=1;fillColor=#b0e3e6;strokeColor=#0e8088;" vertex="1" parent="j7DvqM1_xKKn_GZB0Q8j-98">
          <mxGeometry x="20" y="200" width="150" height="120" as="geometry" />
        </mxCell>
        <mxCell id="j7DvqM1_xKKn_GZB0Q8j-103" value="Content&lt;br&gt;Configs&lt;br&gt;URI&lt;br&gt;Source" style="text;html=1;strokeColor=none;fillColor=none;align=center;verticalAlign=middle;whiteSpace=wrap;rounded=0;" vertex="1" parent="j7DvqM1_xKKn_GZB0Q8j-98">
          <mxGeometry x="30" y="85" width="130" height="65" as="geometry" />
        </mxCell>
        <mxCell id="j7DvqM1_xKKn_GZB0Q8j-104" value="..." style="text;html=1;strokeColor=none;fillColor=none;align=center;verticalAlign=middle;whiteSpace=wrap;rounded=0;" vertex="1" parent="j7DvqM1_xKKn_GZB0Q8j-85">
          <mxGeometry x="630" y="186.25" width="60" height="30" as="geometry" />
        </mxCell>
        <mxCell id="j7DvqM1_xKKn_GZB0Q8j-105" value="View Group" style="swimlane;fillColor=#FFE599;strokeColor=#ccae52;rounded=1;shadow=0;glass=0;" vertex="1" parent="j7DvqM1_xKKn_GZB0Q8j-84">
          <mxGeometry x="730" y="37.5" width="270" height="402.5" as="geometry" />
        </mxCell>
        <mxCell id="j7DvqM1_xKKn_GZB0Q8j-106" value="Montreal.geojson" style="swimlane;fillColor=#FFD966;strokeColor=#806d33;rounded=1;" vertex="1" parent="j7DvqM1_xKKn_GZB0Q8j-105">
          <mxGeometry x="20" y="42.5" width="190" height="335" as="geometry" />
        </mxCell>
        <mxCell id="j7DvqM1_xKKn_GZB0Q8j-107" value="&amp;lt;&amp;lt;view&amp;gt;&amp;gt;&lt;br&gt;Json Editor" style="shape=folder;html=1;tabWidth=110;tabHeight=40;tabPosition=left;align=left;verticalAlign=top;spacingLeft=10;whiteSpace=wrap;fillColor=#b1ddf0;strokeColor=#10739e;" vertex="1" parent="j7DvqM1_xKKn_GZB0Q8j-106">
          <mxGeometry x="20" y="40" width="150" height="120" as="geometry" />
        </mxCell>
        <mxCell id="j7DvqM1_xKKn_GZB0Q8j-108" style="edgeStyle=orthogonalEdgeStyle;rounded=0;orthogonalLoop=1;jettySize=auto;html=1;exitX=0.625;exitY=0;exitDx=0;exitDy=0;entryX=0.627;entryY=1.025;entryDx=0;entryDy=0;entryPerimeter=0;" edge="1" parent="j7DvqM1_xKKn_GZB0Q8j-106" source="j7DvqM1_xKKn_GZB0Q8j-112" target="j7DvqM1_xKKn_GZB0Q8j-107">
          <mxGeometry relative="1" as="geometry" />
        </mxCell>
        <mxCell id="j7DvqM1_xKKn_GZB0Q8j-109" value="Updates content" style="edgeLabel;html=1;align=center;verticalAlign=middle;resizable=0;points=[];" vertex="1" connectable="0" parent="j7DvqM1_xKKn_GZB0Q8j-108">
          <mxGeometry x="-0.2148" y="-1" relative="1" as="geometry">
            <mxPoint x="20" y="-5" as="offset" />
          </mxGeometry>
        </mxCell>
        <mxCell id="j7DvqM1_xKKn_GZB0Q8j-110" style="edgeStyle=orthogonalEdgeStyle;rounded=0;orthogonalLoop=1;jettySize=auto;html=1;exitX=0.375;exitY=0;exitDx=0;exitDy=0;endArrow=none;endFill=0;startArrow=classic;startFill=1;" edge="1" parent="j7DvqM1_xKKn_GZB0Q8j-106" source="j7DvqM1_xKKn_GZB0Q8j-112">
          <mxGeometry relative="1" as="geometry">
            <mxPoint x="76" y="160" as="targetPoint" />
          </mxGeometry>
        </mxCell>
        <mxCell id="j7DvqM1_xKKn_GZB0Q8j-111" value="Calls Events" style="edgeLabel;html=1;align=center;verticalAlign=middle;resizable=0;points=[];" vertex="1" connectable="0" parent="j7DvqM1_xKKn_GZB0Q8j-110">
          <mxGeometry x="0.0753" relative="1" as="geometry">
            <mxPoint x="-27" y="2" as="offset" />
          </mxGeometry>
        </mxCell>
        <mxCell id="j7DvqM1_xKKn_GZB0Q8j-112" value="Json Controller" style="shape=hexagon;perimeter=hexagonPerimeter2;whiteSpace=wrap;html=1;fixedSize=1;fillColor=#b0e3e6;strokeColor=#0e8088;" vertex="1" parent="j7DvqM1_xKKn_GZB0Q8j-106">
          <mxGeometry x="20" y="200" width="150" height="120" as="geometry" />
        </mxCell>
        <mxCell id="j7DvqM1_xKKn_GZB0Q8j-113" value="Content&lt;br&gt;Configs&lt;br&gt;URI&lt;br&gt;Source" style="text;html=1;strokeColor=none;fillColor=none;align=center;verticalAlign=middle;whiteSpace=wrap;rounded=0;" vertex="1" parent="j7DvqM1_xKKn_GZB0Q8j-106">
          <mxGeometry x="30" y="85" width="130" height="65" as="geometry" />
        </mxCell>
        <mxCell id="j7DvqM1_xKKn_GZB0Q8j-114" value="..." style="text;html=1;strokeColor=none;fillColor=none;align=center;verticalAlign=middle;whiteSpace=wrap;rounded=0;" vertex="1" parent="j7DvqM1_xKKn_GZB0Q8j-105">
          <mxGeometry x="210" y="186.25" width="60" height="30" as="geometry" />
        </mxCell>
        <mxCell id="j7DvqM1_xKKn_GZB0Q8j-115" value="..." style="text;html=1;strokeColor=none;fillColor=none;align=center;verticalAlign=middle;whiteSpace=wrap;rounded=0;" vertex="1" parent="j7DvqM1_xKKn_GZB0Q8j-84">
          <mxGeometry x="1000" y="223.75" width="60" height="30" as="geometry" />
        </mxCell>
      </root>
    </mxGraphModel>
  </diagram>
</mxfile>
